<?xml version="1.0" encoding="UTF-8" standalone="no"?>
<svg
		xmlns="http://www.w3.org/2000/svg"
		viewBox="0 0 145.31447 87.177368"
		height="87.177368mm"
		width="145.31447mm">

	<g transform="translate(-7.9645927,-161.70558)">
		<g transform="rotate(-90,172.97868,191.73166)"/>
		<g style="fill:#ff6600">
			<path d="M 120.22887,164.64855 C 118.37709,188.50088 115.2973,212.708 111.84301,234.59988 111.52468,240.33201 116.8406,234.53745 116.8406,234.53745 117.18294,234.27998 116.96362,233.68962 117.0232,233.26542 117.98652,227.68911 118.75587,220.59615 121.44476,213.698 125.24189,207.42913 134.34137,193.753 127.92848,209.47552 125.91837,214.69787 124.23783,215.31555 120.73943,218.27927 124.3076,230.20619 140.76589,241.64403 148.59668,248.88295 L 153.27906,245.97384 V 245.97384 C 147.51114,236.78727 126.7413,228.36051 126.36362,216.53299 129.48655,215.09627 132.22662,209.58909 133.49547,206.90204 140.89092,190.11175 122.88094,204.66463 119.17186,210.05119 117.77442,212.58321 117.21092,213.4038 116.15703,216.18289 113.8283,223.30617 112.6457,228.97598 111.36344,236.04538 111.60872,241.06855 117.02879,233.64068 117.1551,231.97455 119.53954,207.49707 122.61105,184.29862 126.00477,161.70558 Z"/>
			<path
					d="M 387.44922 103.86523 C 376.38956 104.21657 365.09301 109.91773 361.75781 121.11328 C 347.49365 121.43987 333.08945 120.18603 318.94336 122.45703 C 281.65609 128.46312 250.09645 158.95995 242.88086 196.04297 C 233.46188 237.9009 257.39386 283.97417 296.8457 300.66211 C 316.20671 310.21955 338.03586 308.62404 358.94727 308.67578 C 366.23518 312.7068 371.53401 326.90232 383.82617 325.55469 C 416.91673 325.7273 450.01264 325.57973 483.10547 325.62891 C 497.32817 327.56368 512.38915 317.53316 513.50781 302.64258 C 513.80126 246.62389 513.54921 190.59207 513.63281 134.56836 C 515.54359 120.33972 505.45027 105.33615 490.5957 104.16797 C 457.78683 103.8754 424.9644 104.12398 392.15039 104.04102 C 390.60398 103.87321 389.02917 103.81504 387.44922 103.86523 z M 484.19531 120.96094 C 490.06094 121.01397 496.41284 122.56203 496.56055 129.65039 L 496.56055 288.07422 C 496.02147 295.13245 499.09397 305.72402 490.04102 308.31836 C 457.93181 308.87153 425.70927 308.39866 393.55664 308.55664 C 387.04969 308.99605 377.31828 308.98215 377.28906 300.01953 L 377.28906 264.23633 L 377.28906 166.65234 L 377.28906 140.89453 C 377.64422 133.92315 375.05788 123.60183 384.16602 121.27734 C 416.19275 120.89724 448.25485 121.22179 480.29492 121.11328 C 481.51448 121.01612 482.84171 120.9487 484.19531 120.96094 z M 340.4082 138.08594 C 349.86574 138.01545 359.39946 138.52097 368.75391 138.18555 L 368.75391 155.25977 L 337.53711 155.25977 C 308.00913 153.38391 279.77131 176.57965 275.75781 205.86328 C 270.49659 235.68587 291.78066 266.83022 321.34375 273.06641 C 336.97448 275.77603 352.95741 274.0324 368.75391 274.5293 L 368.75391 291.60156 C 353.95498 291.3633 339.10709 292.19464 324.35352 290.91992 C 287.32053 286.72434 257.12077 252.1702 258.01953 214.89453 C 257.58564 184.61258 277.08683 155.92435 304.84961 144.23242 C 316.21412 139.22022 328.24852 138.17657 340.4082 138.08594 z M 355.60352 172.20703 C 357.90519 172.2192 360.24008 172.26517 362.59961 172.33789 L 362.59961 256.44727 C 331.30221 262.5842 293.40834 245.86935 293.54297 217.91797 C 293.72828 179.43507 321.07834 172.02447 355.60352 172.20703 z "
					transform="matrix(0.26458333,0,0,0.26458333,7.964593,161.70558)"/>
			<path d="M 7.9645927,239.37228 V 197.51003 H 13.213685 V 234.43219 H 32.748968 V 239.37228 Z"/>
			<path d="M 32.138192,218.74436 Q 32.138192,208.569 37.441399,202.82619 42.744606,197.0555 51.132331,197.0555 56.624939,197.0555 61.035259,199.75964 65.445579,202.46379 67.745439,207.31451 70.072356,212.13735 70.072356,218.27045 70.072356,224.48717 67.63721,229.39365 65.202064,234.30012 60.73763,236.837 56.273195,239.34599 51.105274,239.34599 45.504438,239.34599 41.094118,236.55823 36.683798,233.77046 34.410995,228.94761 32.138192,224.12476 32.138192,218.74436 Z M 37.549628,218.828 Q 37.549628,226.21559 41.391747,230.48088 45.260924,234.71829 51.078217,234.71829 57.003739,234.71829 60.818801,230.42513 64.660921,226.13195 64.660921,218.24256 64.660921,213.25245 63.010433,209.54472 61.387002,205.80911 58.221312,203.77402 55.08268,201.71108 51.159389,201.71108 45.58561,201.71108 41.55409,205.66972 37.549628,209.60047 37.549628,218.828 Z"/>
		</g>
	</g>
</svg>
